{
	"bufferViews":[{
		"target":34963,
		"buffer":0,
		"byteOffset":0,
		"byteLength":3600
	},
	{
		"target":34962,
		"buffer":0,
		"byteOffset":3600,
		"byteLength":57600,
		"byteStride":32
	},
	{
		"target":34963,
		"buffer":1,
		"byteOffset":0,
		"byteLength":480
	},
	{
		"target":34962,
		"buffer":1,
		"byteOffset":480,
		"byteLength":7680,
		"byteStride":32
	}],
	"asset":{
		"version":"2.0",
		"generator":"Sketchfab-12.67.0",
		"copyright":""
	},
	"scenes":[{
		"nodes":[0]
	}],
	"nodes":[{
		"name":"book_a_open",
		"translation":[0.0,
		2.4492937051703359e-16,
		-4.0],
		"rotation":[0.7071067690849304,
		0.0,
		0.0,
		-0.7071067690849304],
		"scale":[1.0,
		1.0,
		1.0],
		"children":[1,
		2]
	},
	{
		"name":"book_a_open_0",
		"mesh":0
	},
	{
		"name":"book_a_open_1",
		"mesh":1
	}],
	"meshes":[{
		"name":"book_a_open_0",
		"primitives":[{
			"attributes":{
				"POSITION":1,
				"NORMAL":2,
				"TEXCOORD_0":3
			},
			"indices":0,
			"material":0
		}]
	},
	{
		"name":"book_a_open_1",
		"primitives":[{
			"attributes":{
				"POSITION":5,
				"NORMAL":6,
				"TEXCOORD_0":7
			},
			"indices":4,
			"material":1
		}]
	}],
	"accessors":[{
		"bufferView":0,
		"type":"SCALAR",
		"componentType":5123,
		"count":1800,
		"byteOffset":0,
		"min":[0],
		"max":[1799]
	},
	{
		"bufferView":1,
		"type":"VEC3",
		"componentType":5126,
		"count":1800,
		"byteOffset":0,
		"min":[-20.074800491333009,
		0.12220392376184464,
		-0.029980000108480455],
		"max":[0.022770000621676446,
		34.57221221923828,
		3.1229500770568849]
	},
	{
		"bufferView":1,
		"type":"VEC3",
		"componentType":5126,
		"count":1800,
		"byteOffset":12,
		"min":[-1.0,
		-0.999600887298584,
		-1.0],
		"max":[1.0,
		0.9997112154960632,
		1.0]
	},
	{
		"bufferView":1,
		"type":"VEC2",
		"componentType":5126,
		"count":1800,
		"byteOffset":24,
		"min":[0.007439970970153809,
		0.009429931640625],
		"max":[0.9949493408203125,
		0.9510498046875]
	},
	{
		"bufferView":2,
		"type":"SCALAR",
		"componentType":5123,
		"count":240,
		"byteOffset":0,
		"min":[0],
		"max":[239]
	},
	{
		"bufferView":3,
		"type":"VEC3",
		"componentType":5126,
		"count":240,
		"byteOffset":0,
		"min":[-19.721149444580079,
		0.8175808191299439,
		2.000080108642578],
		"max":[-0.34439000487327578,
		33.72669982910156,
		3.1229500770568849]
	},
	{
		"bufferView":3,
		"type":"VEC3",
		"componentType":5126,
		"count":240,
		"byteOffset":12,
		"min":[-0.0053438954055309299,
		-0.12047221511602402,
		0.9664262533187866],
		"max":[0.0053438954055309299,
		0.25694283843040469,
		0.999976396560669]
	},
	{
		"bufferView":3,
		"type":"VEC2",
		"componentType":5126,
		"count":240,
		"byteOffset":24,
		"min":[0.0029599666595458986,
		0.0029599666595458986],
		"max":[0.997039794921875,
		0.71868896484375]
	}],
	"buffers":[{
		"uri":"data:application/octet-stream;base64,",
		"byteLength":61200
	},
	{
		"uri":"data:application/octet-stream;base64,",
		"byteLength":8160
	}],
	"images":[{
		"uri":"data:image/png;base64,"
	},
	{
		"uri":"data:image/png;base64,"
	},
	{
		"uri":"data:image/png;base64,"
	}],
	"samplers":[{
		"magFilter":9729,
		"minFilter":9729,
		"wrapS":10497,
		"wrapT":10497
	},
	{
		"magFilter":9729,
		"minFilter":9729,
		"wrapS":10497,
		"wrapT":10497
	},
	{
		"magFilter":9729,
		"minFilter":9729,
		"wrapS":10497,
		"wrapT":10497
	}],
	"textures":[{
		"sampler":0,
		"source":0
	},
	{
		"sampler":1,
		"source":1
	},
	{
		"sampler":2,
		"source":2
	}],
	"materials":[{
		"normalTexture":{
			"index":1,
			"scale":0.2631574947254498
		},
		"pbrMetallicRoughness":{
			"baseColorTexture":{
				"index":0
			},
			"baseColorFactor":[1.0,
			1.0,
			1.0,
			1.0],
			"metallicFactor":0.0,
			"roughnessFactor":0.9076558500386092
		},
		"emissiveFactor":[0.0,
		0.0,
		0.0],
		"alphaMode":"OPAQUE",
		"doubleSided":false,
		"name":"book_a"
	},
	{
		"pbrMetallicRoughness":{
			"baseColorTexture":{
				"index":2
			},
			"baseColorFactor":[1.0,
			1.0,
			1.0,
			1.0],
			"metallicFactor":0.0,
			"roughnessFactor":1.0
		},
		"emissiveFactor":[0.0,
		0.0,
		0.0],
		"alphaMode":"OPAQUE",
		"doubleSided":false,
		"name":"book_a_pages"
	}]
}